<svg width="63" height="65" viewBox="0 0 63 65" fill="none" xmlns="http://www.w3.org/2000/svg">
<path d="M40.6958 19.4297C40.6194 19.2018 40.4732 19.0033 40.2776 18.8621C40.082 18.7209 39.8468 18.644 39.6051 18.6423H33.8987L32.1421 13.2556C32.0666 13.0273 31.9205 12.8285 31.7246 12.6875C31.5287 12.5466 31.2931 12.4707 31.0513 12.4707C30.8095 12.4707 30.5739 12.5466 30.378 12.6875C30.1822 12.8285 30.0361 13.0273 29.9606 13.2556L28.2039 18.6423H22.4975C22.2558 18.644 22.0207 18.7209 21.8251 18.8621C21.6295 19.0033 21.4832 19.2018 21.4068 19.4297C21.3305 19.6599 21.3306 19.9084 21.407 20.1385C21.4835 20.3686 21.6324 20.5683 21.8316 20.7079L26.4357 24.0404L24.679 29.4271C24.6032 29.6562 24.6023 29.9033 24.6766 30.133C24.7509 30.3626 24.8964 30.563 25.0924 30.7053C25.2905 30.8445 25.5272 30.9193 25.7698 30.9193C26.0124 30.9193 26.2491 30.8445 26.4472 30.7053L31.0513 27.3728L35.6554 30.7053C35.8552 30.8414 36.0906 30.9168 36.3328 30.9221C36.5756 30.9202 36.812 30.8446 37.0102 30.7053C37.2062 30.563 37.3518 30.3626 37.426 30.133C37.5003 29.9033 37.4994 29.6562 37.4236 29.4271L35.6669 24.0404L40.271 20.7079C40.4703 20.5683 40.6191 20.3686 40.6956 20.1385C40.7721 19.9084 40.7722 19.6599 40.6958 19.4297ZM33.6461 22.6823C33.449 22.8238 33.3018 23.0235 33.2255 23.253C33.1492 23.4825 33.1478 23.7301 33.2213 23.9605L34.1513 26.7908L31.7287 25.0333C31.5313 24.8923 31.2944 24.8164 31.0513 24.8164C30.8082 24.8164 30.5713 24.8923 30.3739 25.0333L27.9513 26.7908L28.8813 23.9605C28.9549 23.7301 28.9534 23.4825 28.8771 23.253C28.8008 23.0235 28.6536 22.8238 28.4565 22.6823L26.0339 20.9248H29.0306C29.2731 20.9262 29.5097 20.8506 29.7059 20.7089C29.9021 20.5672 30.0476 20.367 30.1213 20.1373L31.0513 17.307L31.9813 20.1373C32.055 20.367 32.2005 20.5672 32.3967 20.7089C32.5929 20.8506 32.8296 20.9262 33.0721 20.9248H36.0688L33.6461 22.6823Z" fill="#F59305"/>
<path d="M31.0504 7.66406C27.1307 7.66298 23.362 9.16703 20.5314 11.8621C17.7008 14.5573 16.027 18.2351 15.8596 22.1277C15.6922 26.0202 17.044 29.8266 19.6329 32.7521C22.2217 35.6775 25.8475 37.4958 29.753 37.8272C30.1893 37.8615 30.6141 37.8843 31.0504 37.8843C31.4408 37.8843 31.8426 37.8615 32.233 37.8272H32.3478V37.8158C36.2518 37.4844 39.8762 35.6668 42.464 32.7424C45.0518 29.818 46.4031 26.0131 46.2357 22.1219C46.0683 18.2308 44.3951 14.5544 41.5655 11.8604C38.7359 9.16633 34.9686 7.66292 31.0504 7.66406ZM42.3138 29.0282C42.3108 29.0282 42.3079 29.0294 42.3057 29.0316C42.3035 29.0337 42.3023 29.0366 42.3023 29.0396C41.2753 30.8692 39.8113 32.4195 38.0393 33.5539C36.2673 34.6883 34.2417 35.372 32.1411 35.5447L32.1297 35.5562H32.1182C31.4002 35.6264 30.6768 35.6226 29.9596 35.5447C27.1842 35.3097 24.5599 34.188 22.479 32.3475C20.3981 30.5069 18.9724 28.0463 18.4151 25.3336C17.8578 22.6209 18.1988 19.8017 19.3871 17.2976C20.5754 14.7934 22.5472 12.7389 25.0077 11.441C27.4682 10.1432 30.2852 9.67176 33.0376 10.0973C35.79 10.5228 38.3299 11.8223 40.2776 13.8017C42.2253 15.781 43.4762 18.3338 43.8432 21.0784C44.2102 23.8229 43.6737 26.6119 42.3138 29.0282Z" fill="#F59305"/>
<path d="M61.913 56.1325L57.5959 49.479C54.5073 44.7428 51.4226 39.999 48.3417 35.2477C48.5829 35.1563 48.8584 35.0536 49.134 34.9623C49.7562 34.8385 50.3476 34.5931 50.8738 34.2405C51.4 33.8879 51.8506 33.435 52.1995 32.9081C52.3946 32.3123 52.4697 31.6841 52.4205 31.0594C52.3712 30.4347 52.1986 29.8258 51.9125 29.2675C51.6426 28.6834 51.498 28.0499 51.4877 27.4073C51.7721 26.858 52.1668 26.3725 52.6473 25.9807C53.1584 25.596 53.5879 25.1146 53.9111 24.5642C54.2343 24.0138 54.4447 23.4054 54.5303 22.7738C54.446 22.1435 54.236 21.5362 53.9127 20.9875C53.5893 20.4388 53.1592 19.9598 52.6473 19.5783C52.1685 19.1803 51.7743 18.6915 51.4877 18.1403C51.498 17.4977 51.6426 16.8642 51.9125 16.2801C52.1984 15.7238 52.3709 15.1168 52.4202 14.494C52.4694 13.8712 52.3944 13.2449 52.1995 12.6509C51.8496 12.1249 51.3987 11.6727 50.8727 11.3202C50.3466 10.9677 49.7558 10.7218 49.134 10.5967C48.5156 10.4412 47.9342 10.1659 47.4232 9.78641C47.1691 9.20565 47.0288 8.58203 47.0099 7.949C47.0272 7.32005 46.9194 6.69388 46.6929 6.10637C46.4663 5.51887 46.1253 4.98157 45.6895 4.52526C44.5921 3.8831 43.2837 3.69849 42.0498 4.0117C41.4249 4.13991 40.7803 4.13991 40.1554 4.0117C39.6744 3.61125 39.28 3.11824 38.9957 2.56231C38.7346 1.97993 38.3596 1.45499 37.8924 1.01806C37.4253 0.581137 36.8753 0.240958 36.2746 0.0173309C35.6525 -0.0358266 35.026 0.0335881 34.431 0.221595C33.836 0.409601 33.2842 0.712502 32.8072 1.11293C32.2856 1.50802 31.6875 1.79166 31.0505 1.94604C30.4134 1.79166 29.8153 1.50802 29.2938 1.11293C28.8185 0.713382 28.2686 0.41095 27.6756 0.22295C27.0826 0.0349505 26.4581 -0.0349231 25.8378 0.0173309C25.2346 0.238991 24.6821 0.578339 24.2129 1.0154C23.7436 1.45247 23.367 1.97842 23.1052 2.56231C22.8205 3.11478 22.4306 3.60702 21.9571 4.0117C21.3283 4.13973 20.6799 4.13973 20.0511 4.0117C18.821 3.69834 17.5161 3.88305 16.4229 4.52526C15.9822 4.98101 15.6375 5.51958 15.4088 6.10944C15.1801 6.69929 15.0721 7.32856 15.0911 7.96042C15.0794 8.5919 14.9346 9.21393 14.6663 9.78641C14.1657 10.1665 13.5908 10.4386 12.9785 10.5853C11.7197 10.8383 10.6132 11.577 9.90141 12.6395C9.70631 13.2353 9.63124 13.8635 9.68049 14.4882C9.72974 15.1129 9.90235 15.7218 10.1884 16.2801C10.4583 16.8642 10.603 17.4977 10.6133 18.1403C10.3267 18.6915 9.93245 19.1803 9.45362 19.5783C8.94178 19.9598 8.51161 20.4388 8.18829 20.9875C7.86497 21.5362 7.65499 22.1435 7.57064 22.7738C7.65626 23.4054 7.8667 24.0138 8.18986 24.5642C8.51302 25.1146 8.94252 25.596 9.45362 25.9807C9.9342 26.3725 10.3289 26.858 10.6133 27.4073C10.603 28.0499 10.4583 28.6834 10.1884 29.2675C9.90256 29.8239 9.73004 30.4308 9.68079 31.0536C9.63153 31.6764 9.7065 32.3028 9.90141 32.8967C10.2485 33.4252 10.6986 33.8792 11.2251 34.232C11.7516 34.5849 12.3439 34.8293 12.967 34.9509C13.2311 35.0536 13.5066 35.1449 13.7592 35.2477C10.6707 39.9952 7.58595 44.739 4.50506 49.479L0.187989 56.1325C0.063463 56.3189 -0.002 56.5382 4.65608e-05 56.7619C0.00209312 56.9857 0.0715556 57.2037 0.19947 57.3879C0.324212 57.5719 0.50064 57.7155 0.706818 57.8007C0.912996 57.886 1.13983 57.9091 1.35911 57.8672L9.20103 56.4178L11.107 64.1326C11.1623 64.3482 11.2798 64.5429 11.4451 64.693C11.6103 64.843 11.816 64.9418 12.037 64.9771C12.0974 64.9904 12.1589 64.998 12.2207 65C12.4131 65.0013 12.6027 64.9537 12.7714 64.8618C12.9402 64.77 13.0826 64.6368 13.1851 64.475L25.5623 45.4276C25.6541 45.4504 25.7345 45.5075 25.8264 45.5303C26.0145 45.5749 26.2071 45.5979 26.4004 45.5988C27.4544 45.4833 28.4557 45.0804 29.2938 44.4347C29.8153 44.0396 30.4134 43.756 31.0505 43.6016C31.6875 43.756 32.2856 44.0396 32.8072 44.4347C33.2845 44.8383 33.8381 45.1431 34.4355 45.3312C35.0329 45.5193 35.662 45.587 36.2861 45.5303C36.3779 45.5075 36.4583 45.4504 36.5387 45.4276L48.9158 64.475C49.0184 64.6368 49.1608 64.77 49.3295 64.8618C49.4983 64.9537 49.6879 65.0013 49.8803 65C49.9421 64.998 50.0036 64.9904 50.064 64.9771C50.2849 64.9418 50.4907 64.843 50.6559 64.693C50.8211 64.5429 50.9386 64.3482 50.994 64.1326L52.8999 56.4178L60.7418 57.8672C60.9611 57.9079 61.1875 57.8842 61.3934 57.7991C61.5994 57.714 61.7759 57.5711 61.9015 57.3879C62.0294 57.2037 62.0989 56.9857 62.1009 56.7619C62.103 56.5382 62.0375 56.3189 61.913 56.1325ZM12.7029 61.0056L11.1759 54.8315C11.1073 54.5482 10.9323 54.3018 10.6868 54.1427C10.4413 53.9835 10.1439 53.9237 9.85548 53.9755L3.56357 55.1396L6.43397 50.723C9.30436 46.2949 12.1824 41.8669 15.0681 37.4388C15.0806 37.4913 15.0883 37.5448 15.0911 37.5986C15.0738 38.2276 15.1815 38.8537 15.4081 39.4412C15.6347 40.0288 15.9756 40.5661 16.4115 41.0224C17.5091 41.6639 18.8172 41.8485 20.0511 41.5359C20.676 41.4077 21.3207 41.4077 21.9456 41.5359C22.4292 41.9337 22.8242 42.4273 23.1052 42.9853C23.3234 43.3163 23.5415 43.6472 23.7712 43.9668L12.7029 61.0056ZM36.1024 43.0766C36.0096 43.1813 35.8908 43.26 35.7579 43.3049C35.4364 43.3733 34.5868 42.8598 34.0357 42.506C33.1724 41.8397 32.1379 41.4284 31.0505 41.3191C29.9631 41.4284 28.9285 41.8397 28.0653 42.506C27.5142 42.8598 26.6645 43.3847 26.3545 43.3163C26.2137 43.2627 26.0878 43.1767 25.9871 43.0652C25.6315 42.6697 25.3197 42.2373 25.0571 41.7756C24.582 40.8336 23.855 40.04 22.956 39.4817C22.434 39.2455 21.8643 39.1323 21.2911 39.1507C20.7918 39.1604 20.2935 39.1985 19.7985 39.2648C19.0867 39.3447 18.1222 39.4589 17.8467 39.242C17.5711 39.0252 17.4563 38.0551 17.3759 37.3475C17.3619 36.2789 17.0478 35.2353 16.4689 34.3347C16.3775 34.2207 16.2735 34.1173 16.1589 34.0265C16.1151 33.9896 16.069 33.9553 16.0211 33.9238L16.0096 33.9124H15.9981C15.3117 33.4134 14.5421 33.0387 13.7248 32.8054C13.0474 32.5657 12.1288 32.2462 11.9681 31.9038C11.8073 31.5842 12.1288 30.6827 12.3585 30.0207C12.8184 29.0502 12.9897 27.9692 12.8522 26.9051C12.515 25.9056 11.8976 25.0226 11.0725 24.3601C10.5673 23.858 9.86696 23.1618 9.86696 22.7738C9.86696 22.3858 10.5673 21.6896 11.0725 21.1875C11.8976 20.525 12.515 19.642 12.8522 18.6425C12.9897 17.5784 12.8184 16.4974 12.3585 15.5269C12.1288 14.865 11.8073 13.9634 11.9681 13.6324C12.1288 13.3015 13.0588 12.9819 13.7363 12.7422C14.7713 12.5004 15.7153 11.9698 16.4574 11.213C17.0448 10.3198 17.3635 9.27851 17.3759 8.21149C17.4563 7.50392 17.5596 6.54527 17.8467 6.31702C18.1337 6.08877 19.0867 6.20289 19.7985 6.28278C20.8507 6.50557 21.9446 6.43044 22.956 6.06594C23.8577 5.5109 24.5855 4.71637 25.0571 3.77204C25.436 3.15576 25.9641 2.32265 26.343 2.24276C26.6645 2.16288 27.5142 2.69926 28.0653 3.04164C28.9285 3.70793 29.9631 4.11925 31.0505 4.22854C32.1379 4.11925 33.1724 3.70793 34.0357 3.04164C34.5868 2.69926 35.425 2.17429 35.7579 2.24276C36.1368 2.32265 36.665 3.15576 37.0439 3.77204C37.5155 4.71637 38.2432 5.5109 39.145 6.06594C40.1563 6.43044 41.2503 6.50557 42.3024 6.28278C43.0143 6.20289 43.9787 6.08877 44.2543 6.30561C44.5299 6.52244 44.6447 7.4925 44.725 8.20008C44.739 9.26877 45.0532 10.3123 45.6321 11.213C46.3852 11.9698 47.3353 12.5032 48.3762 12.7537C49.0536 12.9819 49.9721 13.3015 50.1329 13.6438C50.2936 13.9634 49.9721 14.865 49.7425 15.5269C49.2826 16.4974 49.1113 17.5784 49.2488 18.6425C49.5859 19.642 50.2034 20.525 51.0284 21.1875C51.5336 21.6896 52.234 22.3858 52.234 22.7738C52.234 23.1618 51.5336 23.858 51.0284 24.3601C50.2034 25.0226 49.5859 25.9056 49.2488 26.9051C49.1113 27.9692 49.2826 29.0502 49.7425 30.0207C49.9721 30.6827 50.2936 31.5842 50.1329 31.9152C49.9721 32.2462 49.0421 32.5771 48.3762 32.8054C47.5164 33.0389 46.7096 33.434 45.9995 33.9695C45.8722 34.0826 45.7533 34.2046 45.6436 34.3347C45.0561 35.2278 44.7374 36.2691 44.725 37.3361C44.6447 38.0437 44.5413 39.0023 44.2543 39.2306C43.9673 39.4588 43.0143 39.3447 42.3024 39.2648C41.2507 39.0363 40.1551 39.1116 39.145 39.4817C38.2459 40.04 37.519 40.8336 37.0439 41.7756C36.7785 42.242 36.4628 42.6782 36.1024 43.0766ZM52.2455 53.9755C51.9571 53.9237 51.6596 53.9835 51.4142 54.1427C51.1687 54.3018 50.9937 54.5482 50.9251 54.8315L49.398 61.0056L38.3298 43.9668C38.5594 43.6472 38.7776 43.3163 38.9957 42.9853C39.2771 42.4307 39.6675 41.9379 40.1439 41.5359C40.7727 41.4079 41.421 41.4079 42.0498 41.5359C43.2799 41.8493 44.5848 41.6646 45.678 41.0224C46.1177 40.5682 46.4619 40.0316 46.6906 39.4437C46.9193 38.8559 47.0278 38.2286 47.0099 37.5986C47.0119 37.5447 47.0196 37.4912 47.0328 37.4388C49.9147 41.8669 52.7928 46.2949 55.667 50.723L58.5374 55.1396L52.2455 53.9755Z" fill="#F59305"/>
</svg>
