<svg width="89" height="69" viewBox="0 0 89 69" fill="none" xmlns="http://www.w3.org/2000/svg">
<path d="M2.65234 13.3047H76.1306" stroke="#F59305" stroke-width="3" stroke-miterlimit="10" stroke-linecap="round" stroke-linejoin="round"/>
<path d="M13.957 38.7383H19.6092" stroke="#F59305" stroke-width="3" stroke-miterlimit="10" stroke-linecap="round" stroke-linejoin="round"/>
<path d="M13.957 30.2617H28.0875" stroke="#F59305" stroke-width="3" stroke-miterlimit="10" stroke-linecap="round" stroke-linejoin="round"/>
<path d="M81.7824 66.9993H59.1737C56.065 66.9993 53.5215 64.4558 53.5215 61.3471V50.0428C53.5215 46.9341 56.065 44.3906 59.1737 44.3906H81.7824C84.891 44.3906 87.4345 46.9341 87.4345 50.0428V61.3471C87.4345 64.4558 84.891 66.9993 81.7824 66.9993Z" stroke="#F59305" stroke-width="3" stroke-miterlimit="10" stroke-linecap="round" stroke-linejoin="round"/>
<path d="M81.7825 44.3919H59.1738V33.0876C59.1738 26.8702 64.2608 21.7832 70.4782 21.7832C76.6956 21.7832 81.7825 26.8702 81.7825 33.0876V44.3919Z" stroke="#F59305" stroke-width="3" stroke-miterlimit="10" stroke-linecap="round" stroke-linejoin="round"/>
<path d="M70.4785 52.8691V58.5213" stroke="#F59305" stroke-width="3" stroke-miterlimit="10" stroke-linecap="round" stroke-linejoin="round"/>
<path d="M53.0127 50.1282L7.47608 49.7139C4.34544 49.6854 1.80713 47.121 1.83538 44.0153L2.16933 7.31089C2.19758 4.20513 4.78214 1.68737 7.91278 1.71585L70.5256 2.28551C73.6562 2.314 76.1945 4.87837 76.1663 7.98413L76.025 23.5129" stroke="#F59305" stroke-width="3" stroke-miterlimit="10" stroke-linecap="round" stroke-linejoin="round"/>
<path d="M60.0231 28.8486C59.4579 28.2834 58.6101 28.0008 57.7622 27.7182C57.197 27.4355 56.9144 27.4355 56.3492 27.4355C54.6535 27.4355 53.2405 28.2834 52.1101 29.4138C50.9796 28.2834 49.5666 27.4355 47.8709 27.4355C44.7622 27.4355 42.2188 29.979 42.2188 33.0877C42.2188 36.1964 44.7622 38.7399 47.8709 38.7399C49.5666 38.7399 50.9796 37.8921 52.1101 36.7616C53.2405 37.8921 54.6535 38.7399 56.3492 38.7399C57.4796 38.7399 58.3274 38.4573 59.1753 37.8921" stroke="#F59305" stroke-width="3" stroke-miterlimit="10" stroke-linecap="round" stroke-linejoin="round"/>
</svg>
