<svg width="60" height="65" viewBox="0 0 60 65" fill="none" xmlns="http://www.w3.org/2000/svg">
<path fill-rule="evenodd" clip-rule="evenodd" d="M3.03758 31.1122C1.15636 33.0641 0 35.7165 0 38.6347C0 44.319 4.38545 48.9886 9.96606 49.4645V49.5055C9.96606 50.839 11.0521 51.9212 12.3903 51.9212H20C21.3382 51.9212 22.4242 50.839 22.4242 49.5055V27.764C22.4242 26.4305 21.3382 25.3482 20 25.3482H12.3903C11.0521 25.3482 9.96606 26.4305 9.96606 27.764V27.805C9.29697 27.8606 7.64242 27.979 7.01212 28.1529C7.54788 20.6086 9.69091 14.9751 13.1212 11.1244C16.9709 6.80028 23.4158 3.83146 29.697 3.83146C35.9855 3.83146 42.44 6.67949 46.2945 10.8949C49.7685 14.6973 51.9164 20.3332 52.4061 28.0104C51.7661 27.8727 50.1042 27.7905 49.4279 27.7688V27.764C49.4279 26.4305 48.3418 25.3482 47.0036 25.3482H39.3939C38.0558 25.3482 36.9697 26.4305 36.9697 27.764V49.5055C36.9697 50.839 38.0558 51.9212 39.3939 51.9212H47.0036C48.3418 51.9212 49.4279 50.839 49.4279 49.5055V49.5007C50.3515 49.4717 51.2461 49.3292 52.097 49.0876V56.1488C52.097 56.4821 51.8255 56.7527 51.4909 56.7527H43.3212V55.7526C43.3212 54.4191 42.2376 53.3369 40.897 53.3369H28.1939C26.8533 53.3369 25.7697 54.4191 25.7697 55.7526V62.5843C25.7697 63.9178 26.8533 65 28.1939 65H40.897C42.2376 65 43.3212 63.9178 43.3212 62.5843V61.5842H51.4909C54.5018 61.5842 55.9455 59.1491 55.9455 56.1488V46.1742C57.8364 44.2199 60 41.5626 60 38.6347C60 35.4146 58.5915 32.5205 56.3564 30.5276C56.1915 20.0216 53.3673 12.5521 48.8776 7.64336C44.1236 2.43989 37.457 0 29.697 0C21.9297 0 15.2533 2.57033 10.4945 7.91876C6.00243 12.9628 3.18788 20.5772 3.03758 31.1122ZM28.6182 56.1683H40.4727V62.1685H28.6182V56.1683ZM45.5794 29.1797V48.0898H40.8182V29.1797H45.5794ZM18.5758 29.1797V48.0898H13.8145V29.1797H18.5758ZM49.4279 31.6051V45.6644C52.6158 45.4905 56.1515 41.8549 56.1515 38.6347C56.1515 35.4146 52.6158 31.779 49.4279 31.6051ZM9.96606 31.6679C7.06909 32.1196 3.84848 35.6199 3.84848 38.6347C3.84848 41.6496 7.06909 45.1498 9.96606 45.6016V31.6679Z" fill="#F59305"/>
</svg>
