<svg width="75" height="65" viewBox="0 0 75 65" fill="none" xmlns="http://www.w3.org/2000/svg">
<path fill-rule="evenodd" clip-rule="evenodd" d="M50 63.75C50 64.44 49.44 65 48.75 65H46.25C45.56 65 45 64.44 45 63.75C45 63.06 45.56 62.5 46.25 62.5H48.75C49.44 62.5 50 63.06 50 63.75ZM75 63.75C75 64.44 74.44 65 73.75 65H53.75C53.06 65 52.5 64.44 52.5 63.75C52.5 63.06 53.06 62.5 53.75 62.5H73.75C74.44 62.5 75 63.06 75 63.75ZM40 63.75C40 64.44 39.44 65 38.75 65H26.25C25.56 65 25 64.44 25 63.75C25 63.06 25.56 62.5 26.25 62.5H38.75C39.44 62.5 40 63.06 40 63.75ZM20 63.75C20 64.44 19.44 65 18.75 65H1.25C0.56 65 0 64.44 0 63.75C0 63.06 0.56 62.5 1.25 62.5H18.75C19.44 62.5 20 63.06 20 63.75ZM2.5 38.75C2.5 38.06 3.06 37.5 3.75 37.5H7.3L6.77125 33.9338C6.67 33.2512 7.14125 32.615 7.82375 32.5138C8.51125 32.4175 9.14375 32.8838 9.245 33.5662L9.82875 37.5H18.75C19.44 37.5 20 38.06 20 38.75C20 39.44 19.44 40 18.75 40H3.75C3.06 40 2.5 39.44 2.5 38.75ZM3.75 27.5H5.69875L5.17 23.9338C5.06875 23.2512 5.54 22.615 6.2225 22.5138C6.91 22.4187 7.5425 22.8838 7.6425 23.5662L8.2275 27.5H18.75C19.44 27.5 20 28.06 20 28.75C20 29.44 19.44 30 18.75 30H3.75C3.06 30 2.5 29.44 2.5 28.75C2.5 28.06 3.06 27.5 3.75 27.5ZM18.75 52.5C18.0613 52.5 17.5 51.9388 17.5 51.25C17.5 50.5612 18.0613 50 18.75 50C19.4387 50 20 50.5612 20 51.25C20 51.9388 19.4387 52.5 18.75 52.5ZM18.75 47.5C16.6825 47.5 15 49.1825 15 51.25C15 53.3175 16.6825 55 18.75 55C20.8175 55 22.5 53.3175 22.5 51.25C22.5 49.1825 20.8175 47.5 18.75 47.5ZM61.25 52.5C60.5612 52.5 60 51.9388 60 51.25C60 50.5612 60.5612 50 61.25 50C61.9388 50 62.5 50.5612 62.5 51.25C62.5 51.9388 61.9388 52.5 61.25 52.5ZM61.25 47.5C59.1825 47.5 57.5 49.1825 57.5 51.25C57.5 53.3175 59.1825 55 61.25 55C63.3175 55 65 53.3175 65 51.25C65 49.1825 63.3175 47.5 61.25 47.5ZM61.25 57.5C57.8037 57.5 55 54.6963 55 51.25C55 47.8037 57.8037 45 61.25 45C64.6963 45 67.5 47.8037 67.5 51.25C67.5 54.6963 64.6963 57.5 61.25 57.5ZM73.3838 31.6162L69.9575 28.19L68.75 13.75C68.75 10.3038 65.9463 7.5 62.5 7.5H53.75C53.06 7.5 52.5 8.06 52.5 8.75C52.5 9.44 53.06 10 53.75 10H62.5C64.5325 10 66.25 11.7175 66.2537 13.8538L67.3913 27.5H63.2725L64.8688 24.3088C65.1775 23.6912 64.9262 22.9412 64.3087 22.6312C63.69 22.3225 62.9412 22.5737 62.6312 23.1912L60.4775 27.5H53.75C53.06 27.5 52.5 28.06 52.5 28.75C52.5 29.44 53.06 30 53.75 30H68.2325L71.6162 33.3838C72.3288 34.0963 72.4975 35.735 72.5 36.25V50H69.9C69.2912 45.7663 65.65 42.5 61.25 42.5C56.425 42.5 52.5 46.425 52.5 51.25C52.5 56.075 56.425 60 61.25 60C65.65 60 69.2912 56.7337 69.9 52.5H73.75C74.44 52.5 75 51.94 75 51.25V36.25C75 35.9412 74.955 33.1862 73.3838 31.6162ZM18.75 57.5C15.3038 57.5 12.5 54.6963 12.5 51.25C12.5 47.8037 15.3038 45 18.75 45C22.1963 45 25 47.8037 25 51.25C25 54.6963 22.1963 57.5 18.75 57.5ZM48.75 0H8.75C5.30375 0 2.5 2.80375 2.5 6.25C2.5 6.3125 2.505 6.37375 2.51375 6.435L4.17375 17.5H1.25C0.56 17.5 0 18.06 0 18.75C0 19.44 0.56 20 1.25 20H18.75C19.44 20 20 19.44 20 18.75C20 18.06 19.44 17.5 18.75 17.5H6.70125L5.00125 6.16375C5.0475 4.13625 6.71125 2.5 8.75 2.5H47.5V50H27.4C26.7913 45.7663 23.15 42.5 18.75 42.5C13.925 42.5 10 46.425 10 51.25C10 56.075 13.925 60 18.75 60C23.15 60 26.7913 56.7337 27.4 52.5H48.75C49.44 52.5 50 51.94 50 51.25V1.25C50 0.56 49.44 0 48.75 0Z" fill="#F59305"/>
</svg>
