<svg width="70" height="70" viewBox="0 0 70 70" fill="none" xmlns="http://www.w3.org/2000/svg">
<circle cx="35" cy="35" r="34" stroke="#36BD64" stroke-width="2"/>
<path d="M22.5708 29.1416C25.0952 29.1416 27.1416 27.0952 27.1416 24.5708C27.1416 22.0464 25.0952 20 22.5708 20C20.0464 20 18 22.0464 18 24.5708C18 27.0952 20.0464 29.1416 22.5708 29.1416Z" fill="#36BD64"/>
<path d="M47.8872 29.1416C50.4116 29.1416 52.458 27.0952 52.458 24.5708C52.458 22.0464 50.4116 20 47.8872 20C45.3628 20 43.3164 22.0464 43.3164 24.5708C43.3164 27.0952 45.3628 29.1416 47.8872 29.1416Z" fill="#36BD64"/>
<path d="M43.9704 50.854C41.4664 53.2059 38.1602 54.515 34.7249 54.515C31.2895 54.515 27.9833 53.2059 25.4793 50.854C23.0942 48.5603 21.7063 45.3191 22.2631 42.1777C24.3584 43.586 26.6526 44.6728 29.0695 45.4022C30.906 45.9381 32.8077 46.2178 34.7207 46.2333C36.6341 46.2223 38.5364 45.9426 40.3719 45.4022C42.7948 44.6751 45.0948 43.5881 47.1949 42.1777C47.7434 45.3191 46.3638 48.5436 43.9704 50.854Z" fill="#36BD64"/>
</svg>
