<svg width="25" height="25" viewBox="0 0 25 25" fill="none" xmlns="http://www.w3.org/2000/svg">
<path fill-rule="evenodd" clip-rule="evenodd" d="M7.37792 18.0387C7.215 17.8758 6.95167 17.8758 6.78875 18.0387L6.25 18.5775L5.71125 18.0387C5.54833 17.8758 5.285 17.8758 5.12208 18.0387C4.95917 18.2017 4.95917 18.465 5.12208 18.6279L5.66083 19.1667L5.12208 19.7054C4.95917 19.8683 4.95917 20.1317 5.12208 20.2946C5.20333 20.3758 5.31 20.4167 5.41667 20.4167C5.52333 20.4167 5.63 20.3758 5.71125 20.2946L6.25 19.7558L6.78875 20.2946C6.87 20.3758 6.97667 20.4167 7.08333 20.4167C7.19 20.4167 7.29667 20.3758 7.37792 20.2946C7.54083 20.1317 7.54083 19.8683 7.37792 19.7054L6.83917 19.1667L7.37792 18.6279C7.54083 18.465 7.54083 18.2017 7.37792 18.0387ZM11.5446 18.0387C11.3817 17.8758 11.1183 17.8758 10.9554 18.0387L10.4167 18.5775L9.87792 18.0387C9.715 17.8758 9.45167 17.8758 9.28875 18.0387C9.12583 18.2017 9.12583 18.465 9.28875 18.6279L9.8275 19.1667L9.28875 19.7054C9.12583 19.8683 9.12583 20.1317 9.28875 20.2946C9.37 20.3758 9.47667 20.4167 9.58333 20.4167C9.69 20.4167 9.79667 20.3758 9.87792 20.2946L10.4167 19.7558L10.9554 20.2946C11.0367 20.3758 11.1433 20.4167 11.25 20.4167C11.3567 20.4167 11.4633 20.3758 11.5446 20.2946C11.7075 20.1317 11.7075 19.8683 11.5446 19.7054L11.0058 19.1667L11.5446 18.6279C11.7075 18.465 11.7075 18.2017 11.5446 18.0387ZM19.8779 13.8721C19.715 13.7092 19.4517 13.7092 19.2887 13.8721L18.75 14.4108L18.2113 13.8721C18.0483 13.7092 17.785 13.7092 17.6221 13.8721C17.4592 14.035 17.4592 14.2983 17.6221 14.4613L18.1608 15L17.6221 15.5387C17.4592 15.7017 17.4592 15.965 17.6221 16.1279C17.7033 16.2092 17.81 16.25 17.9167 16.25C18.0233 16.25 18.13 16.2092 18.2113 16.1279L18.75 15.5892L19.2887 16.1279C19.37 16.2092 19.4767 16.25 19.5833 16.25C19.69 16.25 19.7967 16.2092 19.8779 16.1279C20.0408 15.965 20.0408 15.7017 19.8779 15.5387L19.3392 15L19.8779 14.4613C20.0408 14.2983 20.0408 14.035 19.8779 13.8721ZM15.7113 9.70542C15.5483 9.5425 15.285 9.5425 15.1221 9.70542L14.5833 10.2442L14.0446 9.70542C13.8817 9.5425 13.6183 9.5425 13.4554 9.70542C13.2925 9.86833 13.2925 10.1317 13.4554 10.2946L13.9942 10.8333L13.4554 11.3721C13.2925 11.535 13.2925 11.7983 13.4554 11.9613C13.5367 12.0425 13.6433 12.0833 13.75 12.0833C13.8567 12.0833 13.9633 12.0425 14.0446 11.9613L14.5833 11.4225L15.1221 11.9613C15.2033 12.0425 15.31 12.0833 15.4167 12.0833C15.5233 12.0833 15.63 12.0425 15.7113 11.9613C15.8742 11.7983 15.8742 11.535 15.7113 11.3721L15.1725 10.8333L15.7113 10.2946C15.8742 10.1317 15.8742 9.86833 15.7113 9.70542ZM18.3333 11.25H19.1667V10.4167H18.3333V11.25ZM20 11.6667C20 11.8967 19.8133 12.0833 19.5833 12.0833H17.9167C17.6867 12.0833 17.5 11.8967 17.5 11.6667V10C17.5 9.77 17.6867 9.58333 17.9167 9.58333H19.5833C19.8133 9.58333 20 9.77 20 10V11.6667ZM14.1667 19.5833H15V18.75H14.1667V19.5833ZM15.8333 18.3333V20C15.8333 20.23 15.6467 20.4167 15.4167 20.4167H13.75C13.52 20.4167 13.3333 20.23 13.3333 20V18.3333C13.3333 18.1033 13.52 17.9167 13.75 17.9167H15.4167C15.6467 17.9167 15.8333 18.1033 15.8333 18.3333ZM14.1667 15.4167H15V14.5833H14.1667V15.4167ZM15.8333 15.8333C15.8333 16.0633 15.6467 16.25 15.4167 16.25H13.75C13.52 16.25 13.3333 16.0633 13.3333 15.8333V14.1667C13.3333 13.9367 13.52 13.75 13.75 13.75H15.4167C15.6467 13.75 15.8333 13.9367 15.8333 14.1667V15.8333ZM10 15.4167H10.8333V14.5833H10V15.4167ZM11.6667 15.8333C11.6667 16.0633 11.48 16.25 11.25 16.25H9.58333C9.35333 16.25 9.16667 16.0633 9.16667 15.8333V14.1667C9.16667 13.9367 9.35333 13.75 9.58333 13.75H11.25C11.48 13.75 11.6667 13.9367 11.6667 14.1667V15.8333ZM10 11.25H10.8333V10.4167H10V11.25ZM11.6667 11.6667C11.6667 11.8967 11.48 12.0833 11.25 12.0833H9.58333C9.35333 12.0833 9.16667 11.8967 9.16667 11.6667V10C9.16667 9.77 9.35333 9.58333 9.58333 9.58333H11.25C11.48 9.58333 11.6667 9.77 11.6667 10V11.6667ZM5.83333 15.4167H6.66667V14.5833H5.83333V15.4167ZM7.5 15.8333C7.5 16.0633 7.31333 16.25 7.08333 16.25H5.41667C5.18667 16.25 5 16.0633 5 15.8333V14.1667C5 13.9367 5.18667 13.75 5.41667 13.75H7.08333C7.31333 13.75 7.5 13.9367 7.5 14.1667V15.8333ZM5.83333 11.25H6.66667V10.4167H5.83333V11.25ZM7.5 11.6667C7.5 11.8967 7.31333 12.0833 7.08333 12.0833H5.41667C5.18667 12.0833 5 11.8967 5 11.6667V10C5 9.77 5.18667 9.58333 5.41667 9.58333H7.08333C7.31333 9.58333 7.5 9.77 7.5 10V11.6667ZM18.3333 2.91667C18.3333 3.14625 18.5204 3.33333 18.75 3.33333C18.9796 3.33333 19.1667 3.14625 19.1667 2.91667V1.25C19.1667 1.02042 18.9796 0.833333 18.75 0.833333C18.5204 0.833333 18.3333 1.02042 18.3333 1.25V2.91667ZM17.5 2.91667V1.25C17.5 0.560833 18.0608 0 18.75 0C19.4392 0 20 0.560833 20 1.25V2.91667C20 3.60583 19.4392 4.16667 18.75 4.16667C18.0608 4.16667 17.5 3.60583 17.5 2.91667ZM14.1667 2.91667C14.1667 3.14625 14.3537 3.33333 14.5833 3.33333C14.8129 3.33333 15 3.14625 15 2.91667V1.25C15 1.02042 14.8129 0.833333 14.5833 0.833333C14.3537 0.833333 14.1667 1.02042 14.1667 1.25V2.91667ZM13.3333 2.91667V1.25C13.3333 0.560833 13.8942 0 14.5833 0C15.2725 0 15.8333 0.560833 15.8333 1.25V2.91667C15.8333 3.60583 15.2725 4.16667 14.5833 4.16667C13.8942 4.16667 13.3333 3.60583 13.3333 2.91667ZM10 2.91667C10 3.14625 10.1871 3.33333 10.4167 3.33333C10.6462 3.33333 10.8333 3.14625 10.8333 2.91667V1.25C10.8333 1.02042 10.6462 0.833333 10.4167 0.833333C10.1871 0.833333 10 1.02042 10 1.25V2.91667ZM9.16667 2.91667V1.25C9.16667 0.560833 9.7275 0 10.4167 0C11.1058 0 11.6667 0.560833 11.6667 1.25V2.91667C11.6667 3.60583 11.1058 4.16667 10.4167 4.16667C9.7275 4.16667 9.16667 3.60583 9.16667 2.91667ZM5.83333 2.91667C5.83333 3.14625 6.02042 3.33333 6.25 3.33333C6.47958 3.33333 6.66667 3.14625 6.66667 2.91667V1.25C6.66667 1.02042 6.47958 0.833333 6.25 0.833333C6.02042 0.833333 5.83333 1.02042 5.83333 1.25V2.91667ZM5 2.91667V1.25C5 0.560833 5.56083 0 6.25 0C6.93917 0 7.5 0.560833 7.5 1.25V2.91667C7.5 3.60583 6.93917 4.16667 6.25 4.16667C5.56083 4.16667 5 3.60583 5 2.91667ZM20.1221 22.6221C19.9592 22.785 19.9592 23.0483 20.1221 23.2113C20.2033 23.2925 20.31 23.3333 20.4167 23.3333C20.5233 23.3333 20.63 23.2925 20.7113 23.2113L23.2113 20.7113C23.2896 20.6333 23.3333 20.5271 23.3333 20.4167V7.08333C23.3333 6.85333 23.1467 6.66667 22.9167 6.66667H2.08333C1.85333 6.66667 1.66667 6.85333 1.66667 7.08333V21.6667C1.66667 22.5858 2.41417 23.3333 3.33333 23.3333H18.75C18.98 23.3333 19.1667 23.1467 19.1667 22.9167V20.4167C19.1667 20.2279 19.3525 20 19.5833 20H21.25C21.48 20 21.6667 19.8133 21.6667 19.5833C21.6667 19.3533 21.48 19.1667 21.25 19.1667H19.5833C18.9175 19.1667 18.3333 19.7508 18.3333 20.4167V22.5H3.33333C2.87375 22.5 2.5 22.1262 2.5 21.6667V7.5H22.5V20.2442L20.1221 22.6221ZM22.9167 0.833333H21.25C21.02 0.833333 20.8333 1.02 20.8333 1.25C20.8333 1.48 21.02 1.66667 21.25 1.66667H22.9167C23.5242 1.66667 24.1667 2.30917 24.1667 2.91667V22.9167C24.1667 23.5242 23.5242 24.1667 22.9167 24.1667H2.08333C1.47583 24.1667 0.833333 23.5242 0.833333 22.9167V5.83333H22.9167C23.1467 5.83333 23.3333 5.64667 23.3333 5.41667C23.3333 5.18667 23.1467 5 22.9167 5H0.416667C0.186667 5 0 5.18667 0 5.41667V22.9167C0 23.9875 1.0125 25 2.08333 25H22.9167C23.9875 25 25 23.9875 25 22.9167V2.91667C25 1.84583 23.9875 0.833333 22.9167 0.833333ZM0 3.75V2.91667C0 1.84583 1.0125 0.833333 2.08333 0.833333H3.75C3.98 0.833333 4.16667 1.02 4.16667 1.25C4.16667 1.48 3.98 1.66667 3.75 1.66667H2.08333C1.47583 1.66667 0.833333 2.30917 0.833333 2.91667V3.75C0.833333 3.98 0.646667 4.16667 0.416667 4.16667C0.186667 4.16667 0 3.98 0 3.75Z" fill="#F59305"/>
</svg>
