<svg width="29" height="25" viewBox="0 0 29 25" fill="none" xmlns="http://www.w3.org/2000/svg">
<path d="M8.14636 5.88523H19.6687C19.987 5.88523 20.2452 5.62972 20.2452 5.31411C20.2452 4.9985 19.987 4.74219 19.6687 4.74219H8.14636C7.82803 4.74219 7.57031 4.9985 7.57031 5.31411C7.57031 5.62972 7.82803 5.88523 8.14636 5.88523Z" fill="#F59305"/>
<path d="M21.3403 8.62305H10.5422C10.224 8.62305 9.96582 8.87855 9.96582 9.19416C9.96582 9.50977 10.224 9.76609 10.5422 9.76609H21.3403C21.6586 9.76609 21.9163 9.50977 21.9163 9.19416C21.9163 8.87855 21.6586 8.62305 21.3403 8.62305Z" fill="#F59305"/>
<path d="M18.2662 12.5039H8.14636C7.82803 12.5039 7.57031 12.7594 7.57031 13.075C7.57031 13.3906 7.82803 13.6461 8.14636 13.6461H18.2662C18.5841 13.6461 18.8423 13.3906 18.8423 13.075C18.8422 12.7594 18.5841 12.5039 18.2662 12.5039Z" fill="#F59305"/>
<path d="M24.9583 0H4.04165C1.81352 0 0 1.66179 0 3.70539V15.1093C0 17.1521 1.81352 18.8139 4.04165 18.8139H16.3765L25.2774 25V18.8031C27.3573 18.653 29 17.0536 29 15.1093V3.70539C29 1.66179 27.1865 0 24.9583 0ZM27.271 15.1093C27.271 16.2069 26.233 17.0998 24.9583 17.0998H23.5484V21.7049L16.9221 17.0998H4.04158C2.76645 17.0998 1.72883 16.2069 1.72883 15.1093V3.70539C1.72883 2.60699 2.76645 1.71415 4.04158 1.71415H24.9583C26.233 1.71415 27.271 2.60706 27.271 3.70539V15.1093Z" fill="#F59305"/>
</svg>
