<svg width="25" height="25" viewBox="0 0 25 25" fill="none" xmlns="http://www.w3.org/2000/svg">
<path d="M16.7446 15.2284L13.3826 13.3271V6.38601C13.3826 5.88051 12.9726 5.4707 12.4671 5.4707C11.9616 5.4707 11.5518 5.88071 11.5518 6.38601V13.8611C11.5518 13.8728 11.5549 13.8839 11.5551 13.8957C11.5563 13.9279 11.5601 13.9591 11.5647 13.991C11.5689 14.02 11.573 14.0489 11.5798 14.0771C11.5868 14.1052 11.5961 14.1322 11.6055 14.1595C11.6156 14.1885 11.6254 14.2166 11.6381 14.2442C11.6502 14.2707 11.6648 14.2953 11.6795 14.3204C11.6944 14.3457 11.7089 14.3709 11.726 14.3948C11.7435 14.4191 11.7634 14.4416 11.7833 14.4642C11.8026 14.4861 11.8215 14.5074 11.8428 14.5273C11.8641 14.5474 11.887 14.5651 11.9102 14.583C11.9353 14.6025 11.9606 14.621 11.9878 14.6379C11.9982 14.6441 12.0061 14.6524 12.0167 14.6582L15.8434 16.8222C15.9859 16.9026 16.1404 16.941 16.2932 16.941C16.6125 16.941 16.9225 16.7737 17.0908 16.4761C17.3396 16.0356 17.1845 15.4772 16.7446 15.2284Z" fill="#F59305"/>
<path d="M12.5 0C5.60743 0 0 5.60743 0 12.5C0 19.3924 5.60743 25 12.5 25C19.3924 25 25 19.3924 25 12.5C25 5.60743 19.3924 0 12.5 0ZM13.2957 22.9774V21.1538H11.7043V22.9774C6.77659 22.6064 2.7873 18.8252 2.09719 13.992H3.97894V12.4005H1.99196C2.04328 6.91823 6.31207 2.42862 11.7043 2.02259V3.84625H13.2957V2.02259C18.6877 2.42862 22.9567 6.91823 23.008 12.4005H21.1207V13.992H22.9028C22.2127 18.8252 18.2236 22.6064 13.2957 22.9774Z" fill="#F59305"/>
</svg>
