<svg width="31" height="31" viewBox="0 0 31 31" fill="none" xmlns="http://www.w3.org/2000/svg">
<path d="M29.5923 22.9712L26.3639 19.6772C25.6695 19.0196 24.7935 18.5839 23.8486 18.426C22.9037 18.2682 21.933 18.3955 21.0613 18.7916L19.6576 17.3932C21.3117 15.1914 22.0671 12.4471 21.7717 9.71272C21.4764 6.97836 20.1523 4.45697 18.0659 2.65613C15.9796 0.855284 13.2859 -0.0912924 10.5272 0.00694779C7.76849 0.105188 5.14954 1.24095 3.19758 3.1856C1.24562 5.13025 0.105583 7.73939 0.00697392 10.4878C-0.0916356 13.2362 0.8585 15.9197 2.66611 17.9983C4.47373 20.0768 7.0046 21.396 9.74924 21.6902C12.4939 21.9844 15.2485 21.2318 17.4586 19.584L18.8466 20.9668C18.4023 21.8364 18.243 22.8229 18.3913 23.7874C18.5396 24.7519 18.988 25.6457 19.6732 26.3428L22.9796 29.6368C23.8568 30.5097 25.046 31 26.2859 31C27.5258 31 28.715 30.5097 29.5923 29.6368C30.0379 29.2027 30.392 28.6842 30.6337 28.1119C30.8755 27.5396 31 26.9249 31 26.304C31 25.6831 30.8755 25.0684 30.6337 24.4961C30.392 23.9237 30.0379 23.4053 29.5923 22.9712ZM16.3669 16.3833C15.2755 17.4678 13.886 18.2057 12.3739 18.5039C10.8618 18.8021 9.29487 18.6471 7.87112 18.0585C6.44737 17.4699 5.23065 16.4742 4.37467 15.197C3.51869 13.9199 3.06184 12.4186 3.06184 10.883C3.06184 9.34727 3.51869 7.84604 4.37467 6.56889C5.23065 5.29175 6.44737 4.296 7.87112 3.70742C9.29487 3.11884 10.8618 2.96385 12.3739 3.26202C13.886 3.56018 15.2755 4.29814 16.3669 5.38266C17.0931 6.10431 17.6692 6.96161 18.0624 7.90544C18.4555 8.84927 18.6578 9.86109 18.6578 10.883C18.6578 11.9048 18.4555 12.9166 18.0624 13.8605C17.6692 14.8043 17.0931 15.6616 16.3669 16.3833ZM27.3932 27.3683C27.2482 27.5139 27.0758 27.6295 26.8857 27.7084C26.6957 27.7873 26.4918 27.8279 26.2859 27.8279C26.08 27.8279 25.8762 27.7873 25.6861 27.7084C25.4961 27.6295 25.3236 27.5139 25.1786 27.3683L21.8723 24.0744C21.7261 23.9299 21.6101 23.7581 21.5309 23.5687C21.4517 23.3794 21.4109 23.1763 21.4109 22.9712C21.4109 22.7661 21.4517 22.563 21.5309 22.3736C21.6101 22.1843 21.7261 22.0125 21.8723 21.868C22.0172 21.7224 22.1897 21.6068 22.3798 21.5279C22.5698 21.449 22.7737 21.4084 22.9796 21.4084C23.1855 21.4084 23.3893 21.449 23.5794 21.5279C23.7694 21.6068 23.9419 21.7224 24.0869 21.868L27.3932 25.162C27.5394 25.3064 27.6554 25.4783 27.7346 25.6676C27.8138 25.8569 27.8546 26.06 27.8546 26.2651C27.8546 26.4703 27.8138 26.6733 27.7346 26.8627C27.6554 27.052 27.5394 27.2239 27.3932 27.3683Z" fill="white"/>
</svg>
