<svg width="23" height="23" viewBox="0 0 23 23" fill="none" xmlns="http://www.w3.org/2000/svg">
<path d="M21.9556 17.0431L19.5603 14.5992C19.0451 14.1113 18.3952 13.788 17.6941 13.6709C16.9931 13.5538 16.2729 13.6483 15.6261 13.9421L14.5847 12.9046C15.8119 11.271 16.3723 9.23494 16.1532 7.20621C15.9341 5.17749 14.9517 3.30678 13.4038 1.97067C11.8558 0.634566 9.85731 -0.0677331 7.81051 0.00515482C5.76372 0.0780427 3.82062 0.920705 2.3724 2.36351C0.924167 3.80631 0.0783361 5.74213 0.0051742 7.78126C-0.0679877 9.82039 0.636952 11.8114 1.97808 13.3536C3.31922 14.8957 5.19696 15.8744 7.23331 16.0927C9.26966 16.311 11.3134 15.7527 12.9531 14.5301L13.983 15.556C13.6533 16.2012 13.5352 16.9331 13.6452 17.6487C13.7552 18.3643 14.0879 19.0274 14.5963 19.5447L17.0494 21.9886C17.7002 22.6362 18.5825 23 19.5025 23C20.4224 23 21.3047 22.6362 21.9556 21.9886C22.2862 21.6665 22.5489 21.2819 22.7283 20.8572C22.9076 20.4326 23 19.9766 23 19.5159C23 19.0552 22.9076 18.5991 22.7283 18.1745C22.5489 17.7499 22.2862 17.3652 21.9556 17.0431ZM12.1432 12.1553C11.3335 12.96 10.3025 13.5075 9.18063 13.7287C8.05873 13.9499 6.89619 13.8349 5.83986 13.3982C4.78353 12.9616 3.88081 12.2228 3.24572 11.2752C2.61064 10.3277 2.27169 9.21383 2.27169 8.07445C2.27169 6.93507 2.61064 5.82125 3.24572 4.8737C3.88081 3.92614 4.78353 3.18735 5.83986 2.75066C6.89619 2.31398 8.05873 2.19898 9.18063 2.42021C10.3025 2.64143 11.3335 3.18894 12.1432 3.99359C12.682 4.52901 13.1094 5.16506 13.4011 5.86532C13.6928 6.56559 13.8429 7.3163 13.8429 8.07445C13.8429 8.83261 13.6928 9.58332 13.4011 10.2836C13.1094 10.9838 12.682 11.6199 12.1432 12.1553ZM20.324 20.3055C20.2164 20.4136 20.0885 20.4993 19.9475 20.5579C19.8064 20.6164 19.6552 20.6465 19.5025 20.6465C19.3497 20.6465 19.1985 20.6164 19.0575 20.5579C18.9164 20.4993 18.7885 20.4136 18.6809 20.3055L16.2278 17.8616C16.1193 17.7544 16.0333 17.6269 15.9745 17.4865C15.9158 17.346 15.8855 17.1953 15.8855 17.0431C15.8855 16.891 15.9158 16.7403 15.9745 16.5998C16.0333 16.4593 16.1193 16.3318 16.2278 16.2247C16.3354 16.1166 16.4634 16.0308 16.6044 15.9723C16.7454 15.9138 16.8966 15.8837 17.0494 15.8837C17.2021 15.8837 17.3534 15.9138 17.4944 15.9723C17.6354 16.0308 17.7633 16.1166 17.8709 16.2247L20.324 18.6686C20.4325 18.7757 20.5185 18.9032 20.5773 19.0437C20.636 19.1842 20.6663 19.3349 20.6663 19.487C20.6663 19.6392 20.636 19.7899 20.5773 19.9304C20.5185 20.0709 20.4325 20.1984 20.324 20.3055Z" fill="black"/>
</svg>
