<svg width="22" height="22" viewBox="0 0 22 22" fill="none" xmlns="http://www.w3.org/2000/svg">
<path d="M15.6726 10.8631C16.6721 9.70852 17.2857 8.18807 17.2857 6.51852C17.2857 2.92437 14.4658 0 11 0C7.53421 0 4.71429 2.92437 4.71429 6.51852C4.71429 10.1127 7.53421 13.037 11 13.037C12.2218 13.037 13.3595 12.6679 14.3259 12.0397C17.7438 13.3752 20.097 16.619 20.3964 20.3704H1.60443C1.80793 17.8453 2.95036 15.4904 4.80857 13.8103C5.13621 13.5145 5.17 13.0004 4.88479 12.6606C4.60036 12.3216 4.10379 12.2858 3.77614 12.5816C1.37579 14.7506 0 17.886 0 21.1852C0 21.6358 0.352 22 0.785714 22H21.2143C21.6488 22 22 21.6358 22 21.1852C22 16.7151 19.5014 12.7233 15.6726 10.8631ZM6.28571 6.51852C6.28571 3.8223 8.40007 1.62963 11 1.62963C13.5999 1.62963 15.7143 3.8223 15.7143 6.51852C15.7143 9.21474 13.5999 11.4074 11 11.4074C8.40007 11.4074 6.28571 9.21474 6.28571 6.51852Z" fill="white"/>
</svg>
