<svg width="29" height="27" viewBox="0 0 29 27" fill="none" xmlns="http://www.w3.org/2000/svg">
<path d="M27.5388 24.0896L29 20.0801L28.3738 19.8861C25.3817 18.9161 22.5288 17.5581 19.9543 15.8767L19.3976 15.4887L17.171 18.3987C14.1789 16.3294 11.5348 13.872 9.30812 11.0912L12.4393 9.02186L12.0218 8.50452C10.2127 6.1118 8.75146 3.4604 7.70773 0.67967L7.49898 0.0976562L3.18486 1.45569C1.93237 1.8437 0.958213 2.68438 0.401553 3.84841C-0.155108 5.07711 -0.155108 6.49981 0.540718 7.7285C4.78526 15.9414 11.9523 22.6668 20.7893 26.5469C21.4851 26.8703 22.2505 26.9996 23.0159 26.9996C23.7117 26.9996 24.338 26.8703 24.9642 26.6116C26.2167 26.2236 27.1213 25.2536 27.5388 24.0896ZM24.4075 25.5122C23.4334 25.9003 22.3201 25.8356 21.3459 25.4476C12.7873 21.6322 5.82899 15.1653 1.72362 7.21115C1.23654 6.3058 1.23654 5.27111 1.65404 4.36576C2.00195 3.58974 2.69778 2.94306 3.60235 2.68438L6.5944 1.77903C7.56856 4.23642 8.89063 6.56447 10.4214 8.76319L8.40355 10.0566C7.35981 8.69852 6.45524 7.21116 5.68983 5.72379L4.50693 6.3058C5.34192 7.85784 6.24649 9.40987 7.35981 10.8326L7.77731 11.3499C10.2823 14.648 13.3439 17.4934 16.8926 19.8214L17.4493 20.2095C18.9801 21.1795 20.6501 22.0848 22.3201 22.8609L22.9463 21.6968C21.3459 20.9855 19.7455 20.1448 18.2843 19.1748L19.6759 17.2994C22.0417 18.7868 24.5467 19.9508 27.1909 20.8561L26.1471 23.6369C25.9384 24.4776 25.2425 25.1889 24.4075 25.5122Z" fill="#36BD64"/>
</svg>
