<svg width="22" height="20" viewBox="0 0 22 20" fill="none" xmlns="http://www.w3.org/2000/svg">
<path d="M0.755586 9.23068L20.7831 9.23068C21.0885 9.23068 21.3646 9.41837 21.4815 9.70529C21.5985 9.99298 21.5338 10.3237 21.3177 10.5437L12.2493 19.7744C11.9539 20.0752 11.4763 20.0752 11.1809 19.7744C10.8855 19.4737 10.8855 18.9875 11.1809 18.6867L18.9585 10.7691L0.756354 10.7691C0.337897 10.7691 0.000208738 10.4245 0.000208775 9.9999C0.000208812 9.57529 0.337897 9.23068 0.755586 9.23068Z" fill="#F59305"/>
<path d="M11.7134 0.000933052C11.9065 0.000933069 12.1003 0.0763163 12.248 0.226315L18.2941 6.3801C18.5895 6.68087 18.5895 7.16702 18.2941 7.46778C17.9987 7.76855 17.521 7.76855 17.2256 7.46778L11.1795 1.314C10.8842 1.01323 10.8842 0.527081 11.1795 0.226315C11.3265 0.0763162 11.5203 0.000933036 11.7134 0.000933052Z" fill="#F59305"/>
</svg>
