<svg width="28" height="26" viewBox="0 0 28 26" fill="none" xmlns="http://www.w3.org/2000/svg">
<path d="M0.982673 11.9989L27.0187 12.0016C27.4157 12.0016 27.7746 12.2457 27.9266 12.6187C28.0786 12.9927 27.9945 13.4227 27.7135 13.7087L15.9232 25.7074C15.5392 26.0984 14.9182 26.0983 14.5342 25.7073C14.1503 25.3163 14.1504 24.6843 14.5344 24.2933L24.6465 14.0014L0.983465 13.9989C0.439464 13.9988 0.000511499 13.5508 0.000568858 12.9988C0.000626216 12.4468 0.439674 11.9988 0.982673 11.9989Z" fill="#F59305"/>
<path d="M15.2303 0.000783423C15.4813 0.000809504 15.7333 0.0988353 15.9253 0.293855L23.7844 8.29467C24.1684 8.68571 24.1683 9.31771 23.7843 9.70867C23.4003 10.0996 22.7793 10.0996 22.3953 9.70853L14.5361 1.70771C14.1522 1.31667 14.1522 0.68467 14.5363 0.293711C14.7273 0.0987307 14.9793 0.000757341 15.2303 0.000783423Z" fill="#F59305"/>
</svg>
