<svg width="24" height="24" viewBox="0 0 24 24" fill="none" xmlns="http://www.w3.org/2000/svg">
<path d="M19.48 18.6H6.91799L3.84899 1.726C3.81309 1.52392 3.70767 1.34075 3.551 1.20818C3.39432 1.07561 3.19623 1.00197 2.99099 1H1" stroke="white" stroke-width="1.61607" stroke-linecap="round" stroke-linejoin="round"/>
<path d="M8.03984 22.9996C9.25486 22.9996 10.2398 22.0146 10.2398 20.7996C10.2398 19.5846 9.25486 18.5996 8.03984 18.5996C6.82481 18.5996 5.83984 19.5846 5.83984 20.7996C5.83984 22.0146 6.82481 22.9996 8.03984 22.9996Z" stroke="white" stroke-width="1.61607" stroke-linecap="round" stroke-linejoin="round"/>
<path d="M19.4793 22.9996C20.6943 22.9996 21.6793 22.0146 21.6793 20.7996C21.6793 19.5846 20.6943 18.5996 19.4793 18.5996C18.2643 18.5996 17.2793 19.5846 17.2793 20.7996C17.2793 22.0146 18.2643 22.9996 19.4793 22.9996Z" stroke="white" stroke-width="1.61607" stroke-linecap="round" stroke-linejoin="round"/>
<path d="M6.11453 14.2004H19.9305C20.3419 14.2016 20.7405 14.0579 21.0563 13.7943C21.3722 13.5308 21.585 13.1643 21.6575 12.7594L22.9995 5.40039H4.51953" stroke="white" stroke-width="1.61607" stroke-linecap="round" stroke-linejoin="round"/>
</svg>
